#!OML:ASF E:\Mandelcareful walks\Project 1\Capture day 1\Session 1\Subject1.ASF
:FULLY-SPECIFIED
:DEGREES
68
root -20.0132 14.513 -1.03363 -161.173 14.0408 173.533
lowerback 23.7315 0.578075 -5.12666
upperback 6.11046 0.541373 -1.10856
thorax -6.47183 0.758525 1.51929
lowerneck -28.6144 1.87199 -1.1497
upperneck 12.4002 4.9665 -8.15984
head 8.69913 1.48328 -1.86805
rclavicle -1.43125e-014 1.47101e-014
rhumerus -20.37 10.8501 -76.5286
rradius 72.6499
rwrist -13.4548
rhand -12.4164 -20.715
rfingers 7.12502
rthumb 13.6557 -50.247
lclavicle -1.43125e-014 1.47101e-014
lhumerus -4.6031 -34.9043 71.6
lradius 69.2362
lwrist 24.2951
lhand -25.3622 -17.552
lfingers 7.12502
lthumb 1.16179 12.4246
rfemur -59.9576 -26.3555 6.46188
rtibia 63.2882
rfoot -15.8113 -4.36859
rtoes -7.89882
lfemur -46.7097 25.9021 -14.7429
ltibia 58.7901
lfoot -16.2504 12.3246
ltoes -38.0303
69
root -19.8451 14.4985 -1.03879 -161.073 14.3467 173.275
lowerback 23.4191 0.586668 -5.03551
upperback 6.04063 0.558689 -1.18044
thorax -6.39132 0.754674 1.38827
lowerneck -28.5055 1.9452 -1.15047
upperneck 12.4754 5.0998 -8.3058
head 8.72 1.52963 -1.89775
rclavicle 1.90833e-014 -4.37326e-015
rhumerus -20.3279 10.8144 -76.2097
rradius 72.5581
rwrist -13.5234
rhand -13.8094 -20.5007
rfingers 7.12502
rthumb 12.3128 -50.1181
lclavicle 1.90833e-014 -4.37326e-015
lhumerus -4.71386 -35.2126 70.465
lradius 68.0291
lwrist 24.3305
lhand -25.5317 -17.7564
lfingers 7.12502
lthumb 0.998012 12.221
rfemur -60.5854 -25.7608 6.66268
rtibia 64.1449
rfoot -16.308 -4.57717
rtoes -8.48406
lfemur -46.1949 25.8606 -14.2279
ltibia 58.0391
lfoot -15.8561 12.3435
ltoes -36.8345
70
root -19.6566 14.5103 -1.05391 -161.255 14.2619 173.015
lowerback 23.239 0.470663 -4.76986
upperback 6.13228 0.491338 -1.25106
thorax -6.19529 0.719928 1.18253
lowerneck -28.3165 1.96579 -1.05287
upperneck 12.3893 5.12034 -8.4929
head 8.67115 1.53384 -1.97384
rclavicle -2.38542e-015 -3.97569e-016
rhumerus -20.1061 10.52 -75.913
rradius 72.2895
rwrist -13.4573
rhand -12.8806 -21.3007
rfingers 7.12502
rthumb 13.2083 -50.8622
lclavicle -2.38542e-015 -3.97569e-016
lhumerus -5.10509 -35.4202 69.2932
lradius 67.2129
lwrist 24.2693
lhand -25.5088 -17.5896
lfingers 7.12502
lthumb 1.02015 12.3877
rfemur -60.5184 -25.2659 6.69154
rtibia 64.8932
rfoot -17.1161 -4.59103
rtoes -7.26398
lfemur -45.2525 25.4571 -13.4343
ltibia 57.2056
lfoot -15.5753 12.3842
ltoes -35.7601
71
root -19.464 14.5102 -1.07215 -161.372 14.1803 172.662
lowerback 22.9075 0.232267 -4.5546
upperback 6.20341 0.250921 -1.3048
thorax -5.9366 0.597621 1.07313
lowerneck -28.5112 1.96072 -1.14798
upperneck 12.5664 5.1633 -8.45091
head 8.76187 1.54094 -1.93868
rclavicle -2.18663e-014 -8.74653e-015
rhumerus -19.7607 10.5204 -75.5753
rradius 71.925
rwrist -13.332
rhand -11.6108 -21.8005
rfingers 7.12502
rthumb 14.432 -51.2787
lclavicle -2.18663e-014 -8.74653e-015
lhumerus -6.10424 -35.0312 68.4297
lradius 66.6529
lwrist 24.0203
lhand -25.2197 -17.4261
lfingers 7.12502
lthumb 1.29936 12.5497
rfemur -60.6372 -25.1021 6.8544
rtibia 65.6815
rfoot -17.9326 -4.36118
rtoes -6.40455
lfemur -44.4015 24.9399 -12.8231
ltibia 56.3541
lfoot -14.9792 12.8225
ltoes -35.7589
72
root -19.2516 14.5029 -1.08635 -161.568 14.3625 172.31
lowerback 22.7665 0.104527 -4.56503
upperback 6.24351 0.0904512 -1.37837
thorax -5.81213 0.519128 1.0448
lowerneck -28.699 2.01623 -1.26247
upperneck 12.7639 5.33938 -8.56822
head 8.87132 1.59356 -1.93424
rclavicle 1.43125e-014 5.96354e-015
rhumerus -19.3479 10.5708 -75.2838
rradius 71.3974
rwrist -13.1944
rhand -11.1289 -21.8111
rfingers 7.12502
rthumb 14.8963 -51.2555
lclavicle 1.43125e-014 5.96354e-015
lhumerus -7.22186 -34.3923 67.6972
lradius 65.8646
lwrist 23.5568
lhand -24.8368 -17.5609
lfingers 7.12502
lthumb 1.66923 12.4124
rfemur -60.7388 -24.7963 7.24358
rtibia 66.4583
rfoot -18.7582 -4.40812
rtoes -7.0419
lfemur -43.2662 24.384 -11.8758
ltibia 55.4329
lfoot -14.3332 13.0455
ltoes -34.1823
73
root -19.0322 14.5073 -1.09902 -161.678 14.614 171.907
lowerback 22.5853 0.0714671 -4.54865
upperback 6.21985 0.0413897 -1.56694
thorax -5.74337 0.492624 0.846085
lowerneck -28.591 2.06568 -1.25455
upperneck 12.7062 5.42779 -8.70131
head 8.84412 1.6281 -1.96693
rclavicle -1.86858e-014 1.59028e-014
rhumerus -19.1749 10.3674 -75.142
rradius 70.9935
rwrist -13.1738
rhand -11.5564 -22.1334
rfingers 7.12502
rthumb 14.4845 -51.6078
lclavicle -1.86858e-014 1.59028e-014
lhumerus -8.25204 -34.0003 66.9138
lradius 64.8863
lwrist 23.1181
lhand -24.7595 -17.7134
lfingers 7.12502
lthumb 1.74384 12.2592
rfemur -60.8527 -24.2616 7.58379
rtibia 67.0978
rfoot -19.5278 -4.93254
rtoes -8.05833
lfemur -42.2225 23.5631 -10.8891
ltibia 54.6044
lfoot -13.7492 13.3459
ltoes -31.2447
74
root -18.8045 14.548 -1.11207 -161.881 14.8977 171.539
lowerback 22.5492 0.0958433 -4.6092
upperback 6.20277 0.0507119 -1.72225
thorax -5.74325 0.498564 0.710038
lowerneck -28.3324 2.08703 -1.19222
upperneck 12.6258 5.42068 -8.74599
head 8.77792 1.63205 -1.993
rclavicle 3.97569e-016 6.36111e-015
rhumerus -19.0577 10.0836 -74.933
rradius 70.669
rwrist -12.8537
rhand -11.7877 -22.5756
rfingers 7.12502
rthumb 14.2616 -52.0659
lclavicle 3.97569e-016 6.36111e-015
lhumerus -9.3749 -33.5662 66.2765
lradius 63.8882
lwrist 22.7897
lhand -24.5666 -17.745
lfingers 7.12502
lthumb 1.93014 12.226
rfemur -60.8752 -23.5009 7.78188
rtibia 67.7148
rfoot -20.3864 -5.2943
rtoes -7.59825
lfemur -41.1601 22.8455 -10.0623
ltibia 53.8331
lfoot -12.3946 14.1012
ltoes -29.838
75
root -18.5711 14.5718 -1.1223 -162.161 15.1771 171.226
lowerback 22.6672 0.18856 -4.51048
upperback 6.26517 0.195881 -1.99118
thorax -5.74154 0.578955 0.322305
lowerneck -28.3226 2.02551 -0.843886
upperneck 12.6709 5.23361 -8.88028
head 8.79686 1.54377 -2.12502
rclavicle 2.98177e-014 3.85642e-014
rhumerus -18.8554 9.19562 -74.7536
rradius 70.1824
rwrist -12.0251
rhand -11.1036 -22.3503
rfingers 7.12502
rthumb 14.9207 -51.7929
lclavicle 2.98177e-014 3.85642e-014
lhumerus -10.1057 -33.3591 65.4054
lradius 62.8556
lwrist 22.5499
lhand -24.2938 -17.7113
lfingers 7.12502
lthumb 2.19366 12.2572
rfemur -60.4156 -22.6542 7.96426
rtibia 67.9357
rfoot -21.3881 -5.20907
rtoes -4.83499
lfemur -40.3782 22.1137 -9.20599
ltibia 53.4048
lfoot -10.3059 15.1697
ltoes -28.7096
76
root -18.338 14.6092 -1.12835 -162.4 15.3841 170.871
lowerback 22.8634 -0.072588 -5.01598
upperback 6.31377 -0.241243 -1.7398
thorax -5.7606 0.372918 0.998509
lowerneck -28.603 2.30091 -1.3808
upperneck 12.6916 5.94311 -9.25571
head 8.88813 1.81308 -2.0554
rclavicle 4.33351e-014 1.35174e-014
rhumerus -18.0294 10.2644 -74.1445
rradius 69.6384
rwrist -11.8814
rhand -11.0489 -22.0687
rfingers 7.12502
rthumb 14.9734 -51.5074
lclavicle 4.33351e-014 1.35174e-014
lhumerus -11.7197 -31.0753 65.6397
lradius 61.5954
lwrist 22.0673
lhand -24.2528 -17.7856
lfingers 7.12502
lthumb 2.2332 12.1825
rfemur -60.026 -22.0459 8.27452
rtibia 68.0952
rfoot -22.2948 -5.05731
rtoes -0.744371
lfemur -39.9946 21.2527 -8.56788
ltibia 53.2429
lfoot -8.11906 16.6401
ltoes -26.5713
77
root -18.1095 14.6509 -1.13492 -162.625 15.4711 170.509
lowerback 23.1537 -0.174563 -5.11594
upperback 6.32998 -0.400125 -1.77841
thorax -5.88005 0.30655 1.05474
lowerneck -28.8794 2.41342 -1.49804
upperneck 12.9824 6.22472 -9.41071
head 9.05263 1.90247 -2.04639
rclavicle 1.59028e-015 -5.1684e-015
rhumerus -17.7204 10.3996 -73.9671
rradius 69.3266
rwrist -12.3509
rhand -12.3711 -22.2702
rfingers 7.12502
rthumb 13.6993 -51.7993
lclavicle 1.59028e-015 -5.1684e-015
lhumerus -12.6651 -29.7479 65.39
lradius 60.2793
lwrist 21.861
lhand -23.9528 -17.7893
lfingers 7.12502
lthumb 2.52298 12.1756
rfemur -59.6595 -21.8306 8.77344
rtibia 68.1741
rfoot -23.0197 -5.0167
rtoes -1.66744
lfemur -40.0337 20.5358 -8.20715
ltibia 53.3986
lfoot -6.08067 18.5906
ltoes -22.8553
78
root -17.8874 14.6928 -1.14331 -162.798 15.518 170.228
lowerback 23.3219 -0.182751 -4.97293
upperback 6.38751 -0.372431 -1.88073
thorax -5.90738 0.328023 0.853663
lowerneck -28.5355 2.45481 -1.66541
upperneck 12.7741 6.29 -9.33045
head 8.9191 1.95389 -1.98054
rclavicle 1.51076e-014 -4.8901e-014
rhumerus -17.4743 10.0198 -73.6784
rradius 69.1008
rwrist -12.7374
rhand -13.18 -22.7193
rfingers 7.12502
rthumb 12.9197 -52.2994
lclavicle 1.51076e-014 -4.8901e-014
lhumerus -13.3104 -28.8628 65.0734
lradius 59.0539
lwrist 21.7764
lhand -23.5631 -17.8985
lfingers 7.12502
lthumb 2.89934 12.0616
rfemur -59.3644 -21.7668 9.4179
rtibia 68.2954
rfoot -23.6634 -5.06384
rtoes -3.03673
lfemur -40.3802 20.0378 -8.06668
ltibia 53.7811
lfoot -4.5412 20.898
ltoes -16.5303
79
root -17.6739 14.7325 -1.15241 -162.954 15.6187 170.197
lowerback 23.4565 -0.204473 -4.84383
upperback 6.54714 -0.33469 -1.74397
thorax -5.80324 0.351905 0.918319
lowerneck -28.6828 2.41504 -1.92312
upperneck 12.6346 6.40343 -9.52884
head 8.90331 1.98633 -1.98778
rclavicle -4.6118e-014 4.65156e-014
rhumerus -16.8465 10.0131 -72.9304
rradius 68.8515
rwrist -13.045
rhand -13.3647 -22.9936
rfingers 7.12502
rthumb 12.7416 -52.5849
lclavicle -4.6118e-014 4.65156e-014
lhumerus -14.0383 -27.451 65.1369
lradius 57.9563
lwrist 21.6891
lhand -23.5603 -18.0724
lfingers 7.12502
lthumb 2.90201 11.8876
rfemur -59.0105 -21.4726 10.1861
rtibia 68.4388
rfoot -24.3393 -5.01634
rtoes -1.70638
lfemur -40.8901 20.0983 -8.03077
ltibia 54.445
lfoot -3.79008 22.5041
ltoes -9.78104
80
root -17.4873 14.7605 -1.16684 -163.084 15.161 170.131
lowerback 23.5867 0.0293668 -3.11485
upperback 6.59895 0.347932 -2.59433
thorax -5.85327 0.695476 -1.18311
lowerneck -28.2851 2.02892 -0.235197
upperneck 12.7601 5.24553 -9.79586
head 8.87668 1.48914 -2.53767
rclavicle 5.96354e-015 4.21423e-014
rhumerus -17.7815 6.78164 -73.2574
rradius 68.8657
rwrist -13.0292
rhand -13.9666 -23.1419
rfingers 7.12502
rthumb 12.1613 -52.7685
lclavicle 5.96354e-015 4.21423e-014
lhumerus -13.2678 -29.4 63.6897
lradius 57.1357
lwrist 22.1516
lhand -23.7615 -17.6823
lfingers 7.12502
lthumb 2.70769 12.2802
rfemur -58.5879 -21.8344 10.9706
rtibia 68.5807
rfoot -24.9444 -4.79529
rtoes -0.222259
lfemur -41.956 20.2301 -8.41342
ltibia 55.4846
lfoot -4.07147 22.5427
ltoes -5.96557
